<svg width="1090" height="1090" viewBox="0 0 1090 1090" stroke="currentColor" xmlns="http://www.w3.org/2000/svg">
<path d="M544.5 352.309C551.273 352.309 555.073 352.492 561.844 352.309C597.493 351.341 616.268 339.295 651.844 336.808C676.497 335.085 690.596 333.794 715.125 336.808C739.847 339.846 777 352.309 777 352.309V377.203C777 377.203 769.389 384.836 765.281 390.355C749.284 411.847 762.355 435.215 745.594 456.114C737.956 465.638 732.496 470.308 722.156 476.782C711.575 483.406 704.806 486.29 692.625 488.994C682.056 491.34 675.792 491.076 664.969 490.873C650.939 490.61 642.603 490.78 629.344 486.176C614.896 481.159 606.927 476.29 596.062 465.509C587.761 457.271 584.085 451.482 578.719 441.084C573.373 430.726 568.875 412.901 568.875 412.901C568.875 412.901 565.426 393.461 558.094 388.946C553.441 386.081 549.961 385.658 544.5 385.658C539.039 385.658 535.559 386.081 530.906 388.946C523.574 393.461 520.125 412.901 520.125 412.901C520.125 412.901 515.627 430.726 510.281 441.084C504.915 451.482 501.239 457.271 492.938 465.509C482.073 476.29 474.104 481.159 459.656 486.176C446.397 490.78 438.061 490.61 424.031 490.873C413.208 491.076 406.944 491.34 396.375 488.994C384.194 486.29 377.425 483.406 366.844 476.782C356.504 470.308 351.044 465.638 343.406 456.114C326.645 435.215 339.716 411.847 323.719 390.355C319.611 384.836 312 377.203 312 377.203V352.309C312 352.309 349.153 339.846 373.875 336.808C398.404 333.794 412.503 335.085 437.156 336.808C472.732 339.295 491.507 351.341 527.156 352.309C533.927 352.492 537.727 352.309 544.5 352.309Z" />
<path clip-rule="evenodd" d="M294.5 781C296.5 773.18 330 770 351 735.5C372 701 327 610 308.5 564C290 518 273 475.012 273 397C273 359.579 278.854 293.998 298 231.5C306.863 202.568 327.844 150.555 361.5 116.5C400.546 76.9909 453.021 57.0827 466 53.1756C490.167 45.9006 516.502 35 545 35C573.498 35 599.833 45.9007 624 53.1756C636.979 57.0827 689.454 76.9909 728.5 116.5C762.156 150.555 783.137 202.568 792 231.5C811.146 293.998 817 359.579 817 397C817 475.012 800 518 781.5 564C763 610 718 701 739 735.5C760 770 793.5 773.18 795.5 781C804.625 816.678 771 834.5 739 856.5C707 878.5 625.346 925 545 925C464.654 925 383 878.5 351 856.5C319 834.5 285.375 816.678 294.5 781ZM545 120.5C500.504 120.5 460.298 90.3257 425 104.836C368.937 127.884 350.618 168.795 329 221C309.493 268.108 298 324.228 298 388C298 457.495 304.342 492.779 319.5 533.5C319.5 533.5 361.386 666.375 414.5 735.5C441.342 770.434 487.5 816 504 837C510.386 845.127 545 880.5 545 880.5C545 880.5 579.614 845.127 586 837C602.5 816 648.658 770.434 675.5 735.5C728.614 666.375 770.5 533.5 770.5 533.5C785.658 492.779 792 457.495 792 388C792 324.228 780.507 268.108 761 221C739.382 168.795 721.063 127.884 665 104.836C629.702 90.3257 589.496 120.5 545 120.5Z" />
<path d="M331.356 1033V999.7C331.356 998.3 331.29 996.967 331.156 995.7C331.09 994.367 330.856 993.2 330.456 992.2C330.123 991.133 329.59 990.3 328.856 989.7C328.19 989.1 327.29 988.8 326.156 988.8C323.89 988.8 321.956 989.733 320.356 991.6C318.823 993.467 317.656 995.8 316.856 998.6V1033H309.256V983H314.456L315.956 989.1H316.356C317.023 988.1 317.656 987.167 318.256 986.3C318.923 985.367 319.656 984.567 320.456 983.9C321.323 983.233 322.323 982.733 323.456 982.4C324.59 982 326.023 981.8 327.756 981.8C328.756 981.8 329.79 981.967 330.856 982.3C331.923 982.567 332.89 983.033 333.756 983.7C334.69 984.3 335.49 985.133 336.156 986.2C336.823 987.267 337.256 988.567 337.456 990.1C338.99 987.5 340.69 985.467 342.556 984C344.49 982.533 347.123 981.8 350.456 981.8C352.656 981.8 354.423 982.167 355.756 982.9C357.156 983.633 358.223 984.7 358.956 986.1C359.756 987.433 360.29 989.067 360.556 991C360.89 992.867 361.056 994.967 361.056 997.3V1033H353.456V999C353.456 997.6 353.39 996.3 353.256 995.1C353.123 993.833 352.856 992.733 352.456 991.8C352.123 990.867 351.623 990.133 350.956 989.6C350.356 989.067 349.523 988.8 348.456 988.8C346.123 988.8 344.156 989.733 342.556 991.6C340.956 993.467 339.756 996.133 338.956 999.6V1033H331.356ZM371.717 1033V1026.3H385.217V989.7H371.717V983H390.417L392.017 989.5H392.517C394.784 987.433 397.317 985.667 400.117 984.2C402.917 982.733 406.251 982 410.117 982C412.384 982 414.184 982.433 415.517 983.3C416.917 984.167 417.984 985.433 418.717 987.1C419.517 988.767 420.051 990.8 420.317 993.2C420.584 995.533 420.717 998.2 420.717 1001.2L413.717 1001.3C413.717 997.033 413.284 993.9 412.417 991.9C411.617 989.9 410.117 988.9 407.917 988.9C405.851 988.9 403.984 989.2 402.317 989.8C400.651 990.4 399.184 991.133 397.917 992C396.717 992.867 395.684 993.733 394.817 994.6C393.951 995.467 393.317 996.2 392.917 996.8V1026.3H412.117V1033H371.717ZM449.878 1027.3C452.545 1027.3 454.978 1026.97 457.178 1026.3C459.445 1025.57 461.411 1024.57 463.078 1023.3C464.745 1022.03 466.045 1020.5 466.978 1018.7C467.911 1016.9 468.378 1014.9 468.378 1012.7C468.378 1008.1 466.745 1004.83 463.478 1002.9C460.278 1000.9 455.945 999.9 450.478 999.9H444.078V995.1L463.778 970.2H433.878V963H473.378V970.2L453.678 993.3H455.278C458.345 993.3 461.145 993.733 463.678 994.6C466.211 995.467 468.411 996.7 470.278 998.3C472.145 999.9 473.578 1001.83 474.578 1004.1C475.645 1006.37 476.178 1008.93 476.178 1011.8C476.178 1015.4 475.478 1018.6 474.078 1021.4C472.678 1024.2 470.778 1026.57 468.378 1028.5C465.978 1030.37 463.145 1031.8 459.878 1032.8C456.678 1033.73 453.245 1034.2 449.578 1034.2C446.178 1034.2 443.211 1033.93 440.678 1033.4C438.211 1032.93 435.945 1032.33 433.878 1031.6L435.878 1024.6C437.611 1025.4 439.645 1026.07 441.978 1026.6C444.311 1027.07 446.945 1027.3 449.878 1027.3ZM519.939 963H536.139V1015.9C536.139 1016.5 536.172 1017.27 536.239 1018.2C536.306 1019.07 536.372 1020 536.439 1021C536.572 1022 536.706 1023 536.839 1024C536.972 1024.93 537.106 1025.77 537.239 1026.5H543.939V1033H530.639L529.639 1025.3H529.239C527.772 1027.83 525.572 1029.97 522.639 1031.7C519.772 1033.37 516.439 1034.2 512.639 1034.2C505.106 1034.2 499.539 1032.1 495.939 1027.9C492.406 1023.63 490.639 1017.03 490.639 1008.1C490.639 1003.9 491.239 1000.2 492.439 997C493.639 993.733 495.339 991.033 497.539 988.9C499.806 986.7 502.506 985.033 505.639 983.9C508.772 982.767 512.272 982.2 516.139 982.2C517.539 982.2 518.772 982.233 519.839 982.3C520.972 982.367 522.006 982.467 522.939 982.6C523.872 982.733 524.739 982.933 525.539 983.2C526.406 983.4 527.339 983.633 528.339 983.9V969.7H519.939V963ZM513.939 1027.5C518.006 1027.5 521.206 1026.47 523.539 1024.4C525.872 1022.27 527.472 1019.1 528.339 1014.9V991.7C526.872 990.7 525.206 989.967 523.339 989.5C521.539 989.033 519.139 988.8 516.139 988.8C510.806 988.8 506.606 990.367 503.539 993.5C500.472 996.567 498.939 1001.43 498.939 1008.1C498.939 1010.83 499.172 1013.4 499.639 1015.8C500.172 1018.13 501.006 1020.17 502.139 1021.9C503.339 1023.63 504.906 1025 506.839 1026C508.772 1027 511.139 1027.5 513.939 1027.5ZM545.4 963H561V989.2H561.5C563.567 986.867 565.967 985.067 568.7 983.8C571.433 982.467 574.833 981.8 578.9 981.8C582.1 981.8 584.867 982.133 587.2 982.8C589.6 983.467 591.533 984.633 593 986.3C594.533 987.967 595.667 990.267 596.4 993.2C597.133 996.067 597.5 999.733 597.5 1004.2V1033H589.7V1005.7C589.7 1002.83 589.533 1000.33 589.2 998.2C588.867 996.067 588.2 994.3 587.2 992.9C586.267 991.433 584.967 990.333 583.3 989.6C581.633 988.867 579.5 988.5 576.9 988.5C575.1 988.5 573.333 988.833 571.6 989.5C569.867 990.1 568.267 990.967 566.8 992.1C565.4 993.167 564.167 994.5 563.1 996.1C562.1 997.633 561.4 999.333 561 1001.2V1033H553.3V969.7H545.4V963ZM610.461 998C610.461 992.333 610.961 987.267 611.961 982.8C612.961 978.267 614.461 974.467 616.461 971.4C618.461 968.267 620.994 965.9 624.061 964.3C627.128 962.633 630.761 961.8 634.961 961.8C639.428 961.8 643.194 962.6 646.261 964.2C649.394 965.8 651.928 968.133 653.861 971.2C655.794 974.267 657.194 978.067 658.061 982.6C658.928 987.067 659.361 992.2 659.361 998C659.361 1003.67 658.861 1008.77 657.861 1013.3C656.861 1017.77 655.361 1021.57 653.361 1024.7C651.361 1027.77 648.828 1030.13 645.761 1031.8C642.694 1033.4 639.061 1034.2 634.861 1034.2C630.461 1034.2 626.694 1033.33 623.561 1031.6C620.494 1029.8 617.961 1027.3 615.961 1024.1C614.028 1020.9 612.628 1017.1 611.761 1012.7C610.894 1008.23 610.461 1003.33 610.461 998ZM651.161 998C651.161 994.467 650.961 991.1 650.561 987.9L620.861 1015C621.994 1018.8 623.694 1021.83 625.961 1024.1C628.228 1026.37 631.194 1027.5 634.861 1027.5C640.728 1027.5 644.894 1025.07 647.361 1020.2C649.894 1015.33 651.161 1007.93 651.161 998ZM618.761 998C618.761 999.667 618.794 1001.27 618.861 1002.8C618.994 1004.33 619.128 1005.83 619.261 1007.3L649.061 980.3C647.928 976.7 646.228 973.833 643.961 971.7C641.761 969.567 638.761 968.5 634.961 968.5C629.028 968.5 624.828 970.967 622.361 975.9C619.961 980.767 618.761 988.133 618.761 998ZM670.422 998C670.422 992.333 670.922 987.267 671.922 982.8C672.922 978.267 674.422 974.467 676.422 971.4C678.422 968.267 680.955 965.9 684.022 964.3C687.089 962.633 690.722 961.8 694.922 961.8C699.389 961.8 703.155 962.6 706.222 964.2C709.355 965.8 711.889 968.133 713.822 971.2C715.755 974.267 717.155 978.067 718.022 982.6C718.889 987.067 719.322 992.2 719.322 998C719.322 1003.67 718.822 1008.77 717.822 1013.3C716.822 1017.77 715.322 1021.57 713.322 1024.7C711.322 1027.77 708.789 1030.13 705.722 1031.8C702.655 1033.4 699.022 1034.2 694.822 1034.2C690.422 1034.2 686.655 1033.33 683.522 1031.6C680.455 1029.8 677.922 1027.3 675.922 1024.1C673.989 1020.9 672.589 1017.1 671.722 1012.7C670.855 1008.23 670.422 1003.33 670.422 998ZM711.122 998C711.122 994.467 710.922 991.1 710.522 987.9L680.822 1015C681.955 1018.8 683.655 1021.83 685.922 1024.1C688.189 1026.37 691.155 1027.5 694.822 1027.5C700.689 1027.5 704.855 1025.07 707.322 1020.2C709.855 1015.33 711.122 1007.93 711.122 998ZM678.722 998C678.722 999.667 678.755 1001.27 678.822 1002.8C678.955 1004.33 679.089 1005.83 679.222 1007.3L709.022 980.3C707.889 976.7 706.189 973.833 703.922 971.7C701.722 969.567 698.722 968.5 694.922 968.5C688.989 968.5 684.789 970.967 682.322 975.9C679.922 980.767 678.722 988.133 678.722 998ZM759.783 963H775.983V1015.9C775.983 1016.5 776.016 1017.27 776.083 1018.2C776.149 1019.07 776.216 1020 776.283 1021C776.416 1022 776.549 1023 776.683 1024C776.816 1024.93 776.949 1025.77 777.083 1026.5H783.783V1033H770.483L769.483 1025.3H769.083C767.616 1027.83 765.416 1029.97 762.483 1031.7C759.616 1033.37 756.283 1034.2 752.483 1034.2C744.949 1034.2 739.383 1032.1 735.783 1027.9C732.249 1023.63 730.483 1017.03 730.483 1008.1C730.483 1003.9 731.083 1000.2 732.283 997C733.483 993.733 735.183 991.033 737.383 988.9C739.649 986.7 742.349 985.033 745.483 983.9C748.616 982.767 752.116 982.2 755.983 982.2C757.383 982.2 758.616 982.233 759.683 982.3C760.816 982.367 761.849 982.467 762.783 982.6C763.716 982.733 764.583 982.933 765.383 983.2C766.249 983.4 767.183 983.633 768.183 983.9V969.7H759.783V963ZM753.783 1027.5C757.849 1027.5 761.049 1026.47 763.383 1024.4C765.716 1022.27 767.316 1019.1 768.183 1014.9V991.7C766.716 990.7 765.049 989.967 763.183 989.5C761.383 989.033 758.983 988.8 755.983 988.8C750.649 988.8 746.449 990.367 743.383 993.5C740.316 996.567 738.783 1001.43 738.783 1008.1C738.783 1010.83 739.016 1013.4 739.483 1015.8C740.016 1018.13 740.849 1020.17 741.983 1021.9C743.183 1023.63 744.749 1025 746.683 1026C748.616 1027 750.983 1027.5 753.783 1027.5Z" />
<path d="M331.356 1033H330.356V1034H331.356V1033ZM331.156 995.7L330.157 995.75L330.159 995.777L330.162 995.805L331.156 995.7ZM330.456 992.2L329.502 992.498L329.513 992.535L329.528 992.571L330.456 992.2ZM328.856 989.7L328.187 990.443L328.205 990.459L328.223 990.474L328.856 989.7ZM320.356 991.6L319.597 990.949L319.59 990.957L319.584 990.965L320.356 991.6ZM316.856 998.6L315.895 998.325L315.856 998.46V998.6H316.856ZM316.856 1033V1034H317.856V1033H316.856ZM309.256 1033H308.256V1034H309.256V1033ZM309.256 983V982H308.256V983H309.256ZM314.456 983L315.427 982.761L315.24 982H314.456V983ZM315.956 989.1L314.985 989.339L315.172 990.1H315.956V989.1ZM316.356 989.1V990.1H316.891L317.188 989.655L316.356 989.1ZM318.256 986.3L317.443 985.719L317.438 985.725L317.434 985.731L318.256 986.3ZM320.456 983.9L319.847 983.107L319.831 983.119L319.816 983.132L320.456 983.9ZM323.456 982.4L323.738 983.359L323.764 983.352L323.789 983.343L323.456 982.4ZM330.856 982.3L330.558 983.254L330.586 983.263L330.614 983.27L330.856 982.3ZM333.756 983.7L333.147 984.493L333.18 984.518L333.215 984.541L333.756 983.7ZM336.156 986.2L335.308 986.73L335.308 986.73L336.156 986.2ZM337.456 990.1L336.465 990.229L336.841 993.112L338.318 990.608L337.456 990.1ZM342.556 984L341.952 983.203L341.945 983.208L341.938 983.214L342.556 984ZM355.756 982.9L355.274 983.776L355.283 983.781L355.292 983.786L355.756 982.9ZM358.956 986.1L358.07 986.564L358.084 986.59L358.099 986.614L358.956 986.1ZM360.556 991L359.566 991.137L359.568 991.156L359.572 991.176L360.556 991ZM361.056 1033V1034H362.056V1033H361.056ZM353.456 1033H352.456V1034H353.456V1033ZM353.256 995.1L352.262 995.205L352.262 995.21L353.256 995.1ZM352.456 991.8L351.515 992.136L351.525 992.165L351.537 992.194L352.456 991.8ZM350.956 989.6L350.292 990.347L350.311 990.365L350.332 990.381L350.956 989.6ZM342.556 991.6L341.797 990.949L341.797 990.949L342.556 991.6ZM338.956 999.6L337.982 999.375L337.956 999.486V999.6H338.956ZM338.956 1033V1034H339.956V1033H338.956ZM332.356 1033V999.7H330.356V1033H332.356ZM332.356 999.7C332.356 998.268 332.288 996.9 332.151 995.595L330.162 995.805C330.291 997.033 330.356 998.332 330.356 999.7H332.356ZM332.155 995.65C332.084 994.232 331.834 992.952 331.385 991.829L329.528 992.571C329.878 993.448 330.095 994.502 330.157 995.75L332.155 995.65ZM331.411 991.902C331.03 990.683 330.4 989.671 329.489 988.926L328.223 990.474C328.78 990.929 329.216 991.584 329.502 992.498L331.411 991.902ZM329.525 988.957C328.63 988.151 327.469 987.8 326.156 987.8V989.8C327.11 989.8 327.749 990.049 328.187 990.443L329.525 988.957ZM326.156 987.8C323.571 987.8 321.369 988.882 319.597 990.949L321.116 992.251C322.544 990.585 324.208 989.8 326.156 989.8V987.8ZM319.584 990.965C317.947 992.957 316.725 995.42 315.895 998.325L317.818 998.875C318.588 996.18 319.698 993.976 321.129 992.235L319.584 990.965ZM315.856 998.6V1033H317.856V998.6H315.856ZM316.856 1032H309.256V1034H316.856V1032ZM310.256 1033V983H308.256V1033H310.256ZM309.256 984H314.456V982H309.256V984ZM313.485 983.239L314.985 989.339L316.927 988.861L315.427 982.761L313.485 983.239ZM315.956 990.1H316.356V988.1H315.956V990.1ZM317.188 989.655C317.852 988.659 318.482 987.73 319.078 986.869L317.434 985.731C316.83 986.603 316.194 987.541 315.524 988.545L317.188 989.655ZM319.07 986.881C319.692 986.01 320.368 985.275 321.096 984.668L319.816 983.132C318.944 983.858 318.154 984.723 317.443 985.719L319.07 986.881ZM321.066 984.693C321.827 984.107 322.714 983.661 323.738 983.359L323.174 981.441C321.932 981.806 320.819 982.36 319.847 983.107L321.066 984.693ZM323.789 983.343C324.78 982.993 326.091 982.8 327.756 982.8V980.8C325.955 980.8 324.4 981.007 323.123 981.457L323.789 983.343ZM327.756 982.8C328.644 982.8 329.577 982.948 330.558 983.254L331.155 981.346C330.003 980.986 328.869 980.8 327.756 980.8V982.8ZM330.614 983.27C331.548 983.504 332.389 983.91 333.147 984.493L334.366 982.907C333.39 982.156 332.298 981.63 331.099 981.33L330.614 983.27ZM333.215 984.541C334.009 985.051 334.709 985.772 335.308 986.73L337.004 985.67C336.27 984.495 335.37 983.549 334.297 982.859L333.215 984.541ZM335.308 986.73C335.883 987.65 336.279 988.806 336.465 990.229L338.448 989.971C338.233 988.327 337.762 986.883 337.004 985.67L335.308 986.73ZM338.318 990.608C339.804 988.087 341.428 986.158 343.174 984.786L341.938 983.214C339.951 984.775 338.175 986.913 336.595 989.592L338.318 990.608ZM343.161 984.797C344.865 983.503 347.261 982.8 350.456 982.8V980.8C346.985 980.8 344.114 981.563 341.952 983.203L343.161 984.797ZM350.456 982.8C352.558 982.8 354.14 983.152 355.274 983.776L356.238 982.024C354.706 981.181 352.755 980.8 350.456 980.8V982.8ZM355.292 983.786C356.512 984.425 357.432 985.344 358.07 986.564L359.842 985.636C359.014 984.056 357.801 982.842 356.22 982.014L355.292 983.786ZM358.099 986.614C358.814 987.807 359.313 989.304 359.566 991.137L361.547 990.863C361.266 988.829 360.698 987.06 359.814 985.586L358.099 986.614ZM359.572 991.176C359.893 992.973 360.056 995.013 360.056 997.3H362.056C362.056 994.921 361.886 992.76 361.541 990.824L359.572 991.176ZM360.056 997.3V1033H362.056V997.3H360.056ZM361.056 1032H353.456V1034H361.056V1032ZM354.456 1033V999H352.456V1033H354.456ZM354.456 999C354.456 997.569 354.388 996.231 354.25 994.99L352.262 995.21C352.391 996.369 352.456 997.631 352.456 999H354.456ZM354.251 994.995C354.109 993.653 353.823 992.451 353.375 991.406L351.537 992.194C351.889 993.015 352.136 994.014 352.262 995.205L354.251 994.995ZM353.398 991.464C353.012 990.384 352.414 989.486 351.581 988.819L350.332 990.381C350.831 990.781 351.233 991.349 351.515 992.136L353.398 991.464ZM351.621 988.853C350.784 988.109 349.686 987.8 348.456 987.8V989.8C349.36 989.8 349.928 990.024 350.292 990.347L351.621 988.853ZM348.456 987.8C345.814 987.8 343.575 988.874 341.797 990.949L343.316 992.251C344.737 990.592 346.432 989.8 348.456 989.8V987.8ZM341.797 990.949C340.056 992.981 338.803 995.817 337.982 999.375L339.931 999.825C340.709 996.45 341.857 993.952 343.316 992.251L341.797 990.949ZM337.956 999.6V1033H339.956V999.6H337.956ZM338.956 1032H331.356V1034H338.956V1032ZM371.717 1033H370.717V1034H371.717V1033ZM371.717 1026.3V1025.3H370.717V1026.3H371.717ZM385.217 1026.3V1027.3H386.217V1026.3H385.217ZM385.217 989.7H386.217V988.7H385.217V989.7ZM371.717 989.7H370.717V990.7H371.717V989.7ZM371.717 983V982H370.717V983H371.717ZM390.417 983L391.388 982.761L391.201 982H390.417V983ZM392.017 989.5L391.046 989.739L391.233 990.5H392.017V989.5ZM392.517 989.5V990.5H392.905L393.191 990.239L392.517 989.5ZM415.517 983.3L414.972 984.138L414.981 984.144L414.991 984.15L415.517 983.3ZM418.717 987.1L417.802 987.503L417.809 987.518L417.816 987.533L418.717 987.1ZM420.317 993.2L419.323 993.31L419.324 993.314L420.317 993.2ZM420.717 1001.2L420.731 1002.2L421.717 1002.19V1001.2H420.717ZM413.717 1001.3H412.717V1002.31L413.731 1002.3L413.717 1001.3ZM412.417 991.9L411.489 992.271L411.494 992.285L411.5 992.298L412.417 991.9ZM397.917 992L397.353 991.175L397.342 991.182L397.332 991.189L397.917 992ZM394.817 994.6L395.524 995.307L395.524 995.307L394.817 994.6ZM392.917 996.8L392.085 996.245L391.917 996.497V996.8H392.917ZM392.917 1026.3H391.917V1027.3H392.917V1026.3ZM412.117 1026.3H413.117V1025.3H412.117V1026.3ZM412.117 1033V1034H413.117V1033H412.117ZM372.717 1033V1026.3H370.717V1033H372.717ZM371.717 1027.3H385.217V1025.3H371.717V1027.3ZM386.217 1026.3V989.7H384.217V1026.3H386.217ZM385.217 988.7H371.717V990.7H385.217V988.7ZM372.717 989.7V983H370.717V989.7H372.717ZM371.717 984H390.417V982H371.717V984ZM389.446 983.239L391.046 989.739L392.988 989.261L391.388 982.761L389.446 983.239ZM392.017 990.5H392.517V988.5H392.017V990.5ZM393.191 990.239C395.392 988.232 397.855 986.514 400.581 985.086L399.653 983.314C396.78 984.819 394.175 986.635 391.843 988.761L393.191 990.239ZM400.581 985.086C403.209 983.709 406.377 983 410.117 983V981C406.125 981 402.625 981.758 399.653 983.314L400.581 985.086ZM410.117 983C412.269 983 413.856 983.413 414.972 984.138L416.062 982.462C414.511 981.454 412.499 981 410.117 981V983ZM414.991 984.15C416.201 984.899 417.141 986.001 417.802 987.503L419.633 986.697C418.827 984.866 417.634 983.434 416.044 982.45L414.991 984.15ZM417.816 987.533C418.555 989.072 419.065 990.99 419.323 993.31L421.311 993.09C421.036 990.61 420.48 988.461 419.619 986.667L417.816 987.533ZM419.324 993.314C419.585 995.601 419.717 998.228 419.717 1001.2H421.717C421.717 998.172 421.583 995.466 421.311 993.086L419.324 993.314ZM420.703 1000.2L413.703 1000.3L413.731 1002.3L420.731 1002.2L420.703 1000.2ZM414.717 1001.3C414.717 997.003 414.286 993.698 413.335 991.502L411.5 992.298C412.282 994.102 412.717 997.064 412.717 1001.3H414.717ZM413.346 991.529C412.885 990.378 412.196 989.451 411.247 988.818C410.3 988.186 409.171 987.9 407.917 987.9V989.9C408.864 989.9 409.585 990.114 410.137 990.482C410.689 990.849 411.149 991.422 411.489 992.271L413.346 991.529ZM407.917 987.9C405.754 987.9 403.77 988.214 401.978 988.859L402.656 990.741C404.197 990.186 405.947 989.9 407.917 989.9V987.9ZM401.978 988.859C400.244 989.484 398.699 990.253 397.353 991.175L398.482 992.825C399.669 992.013 401.057 991.316 402.656 990.741L401.978 988.859ZM397.332 991.189C396.097 992.081 395.021 992.982 394.11 993.893L395.524 995.307C396.346 994.485 397.337 993.652 398.503 992.811L397.332 991.189ZM394.11 993.893C393.224 994.779 392.538 995.566 392.085 996.245L393.749 997.355C394.096 996.834 394.677 996.155 395.524 995.307L394.11 993.893ZM391.917 996.8V1026.3H393.917V996.8H391.917ZM392.917 1027.3H412.117V1025.3H392.917V1027.3ZM411.117 1026.3V1033H413.117V1026.3H411.117ZM412.117 1032H371.717V1034H412.117V1032ZM457.178 1026.3L457.468 1027.26L457.477 1027.25L457.486 1027.25L457.178 1026.3ZM466.978 1018.7L466.09 1018.24L466.09 1018.24L466.978 1018.7ZM463.478 1002.9L462.948 1003.75L462.958 1003.75L462.969 1003.76L463.478 1002.9ZM444.078 999.9H443.078V1000.9H444.078V999.9ZM444.078 995.1L443.294 994.48L443.078 994.752V995.1H444.078ZM463.778 970.2L464.562 970.82L465.844 969.2H463.778V970.2ZM433.878 970.2H432.878V971.2H433.878V970.2ZM433.878 963V962H432.878V963H433.878ZM473.378 963H474.378V962H473.378V963ZM473.378 970.2L474.139 970.849L474.378 970.569V970.2H473.378ZM453.678 993.3L452.917 992.651L451.511 994.3H453.678V993.3ZM463.678 994.6L463.354 995.546L463.354 995.546L463.678 994.6ZM470.278 998.3L469.627 999.059L469.627 999.059L470.278 998.3ZM474.578 1004.1L473.663 1004.5L473.668 1004.51L473.673 1004.53L474.578 1004.1ZM474.078 1021.4L473.184 1020.95L473.184 1020.95L474.078 1021.4ZM468.378 1028.5L468.992 1029.29L468.999 1029.28L469.005 1029.28L468.378 1028.5ZM459.878 1032.8L460.158 1033.76L460.171 1033.76L459.878 1032.8ZM440.678 1033.4L440.884 1032.42L440.874 1032.42L440.864 1032.42L440.678 1033.4ZM433.878 1031.6L432.917 1031.33L432.659 1032.23L433.544 1032.54L433.878 1031.6ZM435.878 1024.6L436.297 1023.69L435.237 1023.2L434.917 1024.33L435.878 1024.6ZM441.978 1026.6L441.755 1027.57L441.769 1027.58L441.782 1027.58L441.978 1026.6ZM449.878 1028.3C452.628 1028.3 455.16 1027.96 457.468 1027.26L456.888 1025.34C454.796 1025.98 452.462 1026.3 449.878 1026.3V1028.3ZM457.486 1027.25C459.845 1026.49 461.915 1025.44 463.683 1024.1L462.473 1022.5C460.907 1023.69 459.044 1024.65 456.87 1025.35L457.486 1027.25ZM463.683 1024.1C465.464 1022.74 466.862 1021.1 467.866 1019.16L466.09 1018.24C465.227 1019.9 464.026 1021.32 462.473 1022.5L463.683 1024.1ZM467.866 1019.16C468.879 1017.21 469.378 1015.05 469.378 1012.7H467.378C467.378 1014.75 466.944 1016.59 466.09 1018.24L467.866 1019.16ZM469.378 1012.7C469.378 1007.83 467.627 1004.19 463.987 1002.04L462.969 1003.76C465.863 1005.47 467.378 1008.37 467.378 1012.7H469.378ZM464.008 1002.05C460.593 999.918 456.053 998.9 450.478 998.9V1000.9C455.837 1000.9 459.963 1001.88 462.948 1003.75L464.008 1002.05ZM450.478 998.9H444.078V1000.9H450.478V998.9ZM445.078 999.9V995.1H443.078V999.9H445.078ZM444.862 995.72L464.562 970.82L462.994 969.58L443.294 994.48L444.862 995.72ZM463.778 969.2H433.878V971.2H463.778V969.2ZM434.878 970.2V963H432.878V970.2H434.878ZM433.878 964H473.378V962H433.878V964ZM472.378 963V970.2H474.378V963H472.378ZM472.617 969.551L452.917 992.651L454.439 993.949L474.139 970.849L472.617 969.551ZM453.678 994.3H455.278V992.3H453.678V994.3ZM455.278 994.3C458.25 994.3 460.939 994.72 463.354 995.546L464.002 993.654C461.35 992.747 458.439 992.3 455.278 992.3V994.3ZM463.354 995.546C465.779 996.375 467.865 997.549 469.627 999.059L470.929 997.541C468.958 995.851 466.644 994.558 464.002 993.654L463.354 995.546ZM469.627 999.059C471.38 1000.56 472.723 1002.37 473.663 1004.5L475.493 1003.7C474.433 1001.29 472.91 999.239 470.929 997.541L469.627 999.059ZM473.673 1004.53C474.669 1006.64 475.178 1009.06 475.178 1011.8H477.178C477.178 1008.81 476.621 1006.09 475.483 1003.67L473.673 1004.53ZM475.178 1011.8C475.178 1015.27 474.505 1018.31 473.184 1020.95L474.973 1021.85C476.452 1018.89 477.178 1015.53 477.178 1011.8H475.178ZM473.184 1020.95C471.847 1023.63 470.037 1025.88 467.751 1027.72L469.005 1029.28C471.519 1027.25 473.509 1024.77 474.973 1021.85L473.184 1020.95ZM467.764 1027.71C465.471 1029.49 462.75 1030.88 459.585 1031.84L460.171 1033.76C463.54 1032.72 466.485 1031.24 468.992 1029.29L467.764 1027.71ZM459.598 1031.84C456.498 1032.74 453.159 1033.2 449.578 1033.2V1035.2C453.33 1035.2 456.859 1034.72 460.158 1033.76L459.598 1031.84ZM449.578 1033.2C446.227 1033.2 443.332 1032.94 440.884 1032.42L440.472 1034.38C443.09 1034.93 446.129 1035.2 449.578 1035.2V1033.2ZM440.864 1032.42C438.441 1031.96 436.224 1031.37 434.213 1030.66L433.544 1032.54C435.665 1033.3 437.982 1033.91 440.492 1034.38L440.864 1032.42ZM434.84 1031.87L436.84 1024.87L434.917 1024.33L432.917 1031.33L434.84 1031.87ZM435.459 1025.51C437.269 1026.34 439.371 1027.03 441.755 1027.57L442.201 1025.63C439.919 1025.1 437.954 1024.46 436.297 1023.69L435.459 1025.51ZM441.782 1027.58C444.193 1028.06 446.893 1028.3 449.878 1028.3V1026.3C446.996 1026.3 444.43 1026.07 442.174 1025.62L441.782 1027.58ZM519.939 963V962H518.939V963H519.939ZM536.139 963H537.139V962H536.139V963ZM536.239 1018.2L535.242 1018.27L535.242 1018.28L536.239 1018.2ZM536.439 1021L535.441 1021.07L535.443 1021.1L535.448 1021.13L536.439 1021ZM536.839 1024L535.848 1024.13L535.849 1024.14L536.839 1024ZM537.239 1026.5L536.255 1026.68L536.404 1027.5H537.239V1026.5ZM543.939 1026.5H544.939V1025.5H543.939V1026.5ZM543.939 1033V1034H544.939V1033H543.939ZM530.639 1033L529.647 1033.13L529.761 1034H530.639V1033ZM529.639 1025.3L530.631 1025.17L530.518 1024.3H529.639V1025.3ZM529.239 1025.3V1024.3H528.663L528.374 1024.8L529.239 1025.3ZM522.639 1031.7L523.142 1032.56L523.148 1032.56L522.639 1031.7ZM495.939 1027.9L495.169 1028.54L495.174 1028.54L495.18 1028.55L495.939 1027.9ZM492.439 997L493.375 997.351L493.378 997.345L492.439 997ZM497.539 988.9L498.235 989.618L498.236 989.618L497.539 988.9ZM505.639 983.9L505.299 982.96L505.639 983.9ZM519.839 982.3L519.777 983.298L519.78 983.298L519.839 982.3ZM522.939 982.6L522.798 983.59L522.798 983.59L522.939 982.6ZM525.539 983.2L525.223 984.149L525.268 984.164L525.314 984.174L525.539 983.2ZM528.339 983.9L528.081 984.866L529.339 985.202V983.9H528.339ZM528.339 969.7H529.339V968.7H528.339V969.7ZM519.939 969.7H518.939V970.7H519.939V969.7ZM523.539 1024.4L524.202 1025.15L524.208 1025.14L524.214 1025.14L523.539 1024.4ZM528.339 1014.9L529.318 1015.1L529.339 1015V1014.9H528.339ZM528.339 991.7H529.339V991.171L528.902 990.874L528.339 991.7ZM523.339 989.5L523.088 990.468L523.097 990.47L523.339 989.5ZM503.539 993.5L504.246 994.207L504.254 994.199L503.539 993.5ZM499.639 1015.8L498.657 1015.99L498.661 1016.01L498.664 1016.02L499.639 1015.8ZM502.139 1021.9L501.302 1022.45L501.309 1022.46L501.317 1022.47L502.139 1021.9ZM506.839 1026L506.38 1026.89L506.38 1026.89L506.839 1026ZM519.939 964H536.139V962H519.939V964ZM535.139 963V1015.9H537.139V963H535.139ZM535.139 1015.9C535.139 1016.53 535.174 1017.33 535.242 1018.27L537.237 1018.13C537.171 1017.21 537.139 1016.47 537.139 1015.9H535.139ZM535.242 1018.28C535.308 1019.14 535.375 1020.07 535.441 1021.07L537.437 1020.93C537.37 1019.93 537.303 1018.99 537.236 1018.12L535.242 1018.28ZM535.448 1021.13C535.581 1022.13 535.715 1023.13 535.848 1024.13L537.83 1023.87C537.697 1022.87 537.564 1021.87 537.43 1020.87L535.448 1021.13ZM535.849 1024.14C535.984 1025.08 536.119 1025.93 536.255 1026.68L538.223 1026.32C538.092 1025.6 537.961 1024.78 537.829 1023.86L535.849 1024.14ZM537.239 1027.5H543.939V1025.5H537.239V1027.5ZM542.939 1026.5V1033H544.939V1026.5H542.939ZM543.939 1032H530.639V1034H543.939V1032ZM531.631 1032.87L530.631 1025.17L528.647 1025.43L529.647 1033.13L531.631 1032.87ZM529.639 1024.3H529.239V1026.3H529.639V1024.3ZM528.374 1024.8C527.006 1027.16 524.94 1029.18 522.13 1030.84L523.148 1032.56C526.205 1030.75 528.539 1028.51 530.104 1025.8L528.374 1024.8ZM522.136 1030.84C519.444 1032.4 516.289 1033.2 512.639 1033.2V1035.2C516.589 1035.2 520.101 1034.33 523.142 1032.56L522.136 1030.84ZM512.639 1033.2C505.287 1033.2 500.046 1031.16 496.698 1027.25L495.18 1028.55C499.032 1033.04 504.925 1035.2 512.639 1035.2V1033.2ZM496.709 1027.26C493.392 1023.26 491.639 1016.93 491.639 1008.1H489.639C489.639 1017.13 491.42 1024.01 495.169 1028.54L496.709 1027.26ZM491.639 1008.1C491.639 1003.99 492.226 1000.42 493.375 997.351L491.503 996.649C490.252 999.984 489.639 1003.81 489.639 1008.1H491.639ZM493.378 997.345C494.533 994.2 496.157 991.633 498.235 989.618L496.843 988.182C494.521 990.433 492.745 993.267 491.5 996.655L493.378 997.345ZM498.236 989.618C500.395 987.522 502.972 985.928 505.979 984.84L505.299 982.96C502.04 984.138 499.216 985.878 496.843 988.182L498.236 989.618ZM505.979 984.84C508.988 983.752 512.37 983.2 516.139 983.2V981.2C512.175 981.2 508.557 981.781 505.299 982.96L505.979 984.84ZM516.139 983.2C517.524 983.2 518.736 983.233 519.777 983.298L519.901 981.302C518.809 981.234 517.554 981.2 516.139 981.2V983.2ZM519.78 983.298C520.891 983.364 521.897 983.461 522.798 983.59L523.08 981.61C522.115 981.472 521.053 981.37 519.898 981.302L519.78 983.298ZM522.798 983.59C523.678 983.716 524.486 983.903 525.223 984.149L525.855 982.251C524.992 981.964 524.066 981.751 523.08 981.61L522.798 983.59ZM525.314 984.174C526.168 984.371 527.091 984.602 528.081 984.866L528.597 982.934C527.588 982.665 526.643 982.429 525.764 982.226L525.314 984.174ZM529.339 983.9V969.7H527.339V983.9H529.339ZM528.339 968.7H519.939V970.7H528.339V968.7ZM520.939 969.7V963H518.939V969.7H520.939ZM513.939 1028.5C518.174 1028.5 521.636 1027.42 524.202 1025.15L522.876 1023.65C520.775 1025.51 517.838 1026.5 513.939 1026.5V1028.5ZM524.214 1025.14C526.749 1022.82 528.424 1019.44 529.318 1015.1L527.36 1014.7C526.521 1018.76 524.995 1021.71 522.864 1023.66L524.214 1025.14ZM529.339 1014.9V991.7H527.339V1014.9H529.339ZM528.902 990.874C527.33 989.802 525.553 989.023 523.582 988.53L523.097 990.47C524.858 990.911 526.415 991.598 527.776 992.526L528.902 990.874ZM523.59 988.532C521.674 988.035 519.179 987.8 516.139 987.8V989.8C519.099 989.8 521.404 990.031 523.088 990.468L523.59 988.532ZM516.139 987.8C510.599 987.8 506.119 989.435 502.824 992.801L504.254 994.199C507.093 991.299 511.012 989.8 516.139 989.8V987.8ZM502.832 992.793C499.498 996.127 497.939 1001.31 497.939 1008.1H499.939C499.939 1001.56 501.447 997.007 504.246 994.207L502.832 992.793ZM497.939 1008.1C497.939 1010.89 498.177 1013.52 498.657 1015.99L500.621 1015.61C500.168 1013.28 499.939 1010.78 499.939 1008.1H497.939ZM498.664 1016.02C499.22 1018.45 500.095 1020.6 501.302 1022.45L502.976 1021.35C501.917 1019.73 501.125 1017.81 500.614 1015.58L498.664 1016.02ZM501.317 1022.47C502.613 1024.34 504.306 1025.82 506.38 1026.89L507.298 1025.11C505.505 1024.18 504.065 1022.93 502.961 1021.33L501.317 1022.47ZM506.38 1026.89C508.49 1027.98 511.024 1028.5 513.939 1028.5V1026.5C511.255 1026.5 509.055 1026.02 507.298 1025.11L506.38 1026.89ZM545.4 963V962H544.4V963H545.4ZM561 963H562V962H561V963ZM561 989.2H560V990.2H561V989.2ZM561.5 989.2V990.2H561.95L562.249 989.863L561.5 989.2ZM568.7 983.8L569.12 984.707L569.129 984.703L569.138 984.699L568.7 983.8ZM587.2 982.8L586.925 983.762L586.932 983.764L587.2 982.8ZM593 986.3L592.249 986.961L592.257 986.969L592.264 986.977L593 986.3ZM596.4 993.2L595.43 993.443L595.431 993.448L596.4 993.2ZM597.5 1033V1034H598.5V1033H597.5ZM589.7 1033H588.7V1034H589.7V1033ZM589.2 998.2L590.188 998.046L590.188 998.046L589.2 998.2ZM587.2 992.9L586.356 993.437L586.371 993.459L586.386 993.481L587.2 992.9ZM571.6 989.5L571.927 990.445L571.943 990.439L571.959 990.433L571.6 989.5ZM566.8 992.1L567.406 992.895L567.411 992.891L566.8 992.1ZM563.1 996.1L562.268 995.545L562.262 995.554L563.1 996.1ZM561 1001.2L560.022 1000.99L560 1001.09V1001.2H561ZM561 1033V1034H562V1033H561ZM553.3 1033H552.3V1034H553.3V1033ZM553.3 969.7H554.3V968.7H553.3V969.7ZM545.4 969.7H544.4V970.7H545.4V969.7ZM545.4 964H561V962H545.4V964ZM560 963V989.2H562V963H560ZM561 990.2H561.5V988.2H561V990.2ZM562.249 989.863C564.227 987.629 566.517 985.914 569.12 984.707L568.28 982.893C565.417 984.219 562.906 986.104 560.751 988.537L562.249 989.863ZM569.138 984.699C571.697 983.451 574.936 982.8 578.9 982.8V980.8C574.73 980.8 571.169 981.483 568.262 982.901L569.138 984.699ZM578.9 982.8C582.035 982.8 584.704 983.127 586.925 983.762L587.475 981.838C585.029 981.14 582.165 980.8 578.9 980.8V982.8ZM586.932 983.764C589.169 984.385 590.926 985.457 592.249 986.961L593.751 985.639C592.141 983.81 590.031 982.549 587.468 981.836L586.932 983.764ZM592.264 986.977C593.653 988.486 594.724 990.619 595.43 993.443L597.37 992.957C596.609 989.914 595.414 987.447 593.736 985.623L592.264 986.977ZM595.431 993.448C596.136 996.204 596.5 999.779 596.5 1004.2H598.5C598.5 999.688 598.131 995.93 597.369 992.952L595.431 993.448ZM596.5 1004.2V1033H598.5V1004.2H596.5ZM597.5 1032H589.7V1034H597.5V1032ZM590.7 1033V1005.7H588.7V1033H590.7ZM590.7 1005.7C590.7 1002.8 590.531 1000.24 590.188 998.046L588.212 998.354C588.535 1000.42 588.7 1002.87 588.7 1005.7H590.7ZM590.188 998.046C589.837 995.797 589.124 993.874 588.014 992.319L586.386 993.481C587.276 994.726 587.897 996.337 588.212 998.354L590.188 998.046ZM588.044 992.363C586.999 990.721 585.542 989.494 583.703 988.685L582.897 990.515C584.392 991.173 585.534 992.145 586.356 993.437L588.044 992.363ZM583.703 988.685C581.867 987.877 579.584 987.5 576.9 987.5V989.5C579.416 989.5 581.4 989.856 582.897 990.515L583.703 988.685ZM576.9 987.5C574.973 987.5 573.085 987.857 571.241 988.567L571.959 990.433C573.581 989.809 575.227 989.5 576.9 989.5V987.5ZM571.273 988.555C569.436 989.191 567.74 990.11 566.189 991.309L567.411 992.891C568.793 991.824 570.297 991.009 571.927 990.445L571.273 988.555ZM566.194 991.305C564.698 992.444 563.39 993.862 562.268 995.545L563.932 996.655C564.943 995.138 566.102 993.889 567.406 992.895L566.194 991.305ZM562.262 995.554C561.193 997.194 560.447 999.009 560.022 1000.99L561.978 1001.41C562.353 999.658 563.007 998.073 563.938 996.646L562.262 995.554ZM560 1001.2V1033H562V1001.2H560ZM561 1032H553.3V1034H561V1032ZM554.3 1033V969.7H552.3V1033H554.3ZM553.3 968.7H545.4V970.7H553.3V968.7ZM546.4 969.7V963H544.4V969.7H546.4ZM611.961 982.8L612.937 983.018L612.937 983.015L611.961 982.8ZM616.461 971.4L617.299 971.946L617.304 971.938L616.461 971.4ZM624.061 964.3L624.524 965.187L624.531 965.183L624.538 965.179L624.061 964.3ZM646.261 964.2L645.798 965.087L645.806 965.091L646.261 964.2ZM653.861 971.2L654.707 970.667L654.707 970.667L653.861 971.2ZM658.061 982.6L657.079 982.788L657.079 982.79L658.061 982.6ZM657.861 1013.3L658.837 1013.52L658.837 1013.52L657.861 1013.3ZM653.361 1024.7L654.199 1025.25L654.204 1025.24L653.361 1024.7ZM645.761 1031.8L646.224 1032.69L646.231 1032.68L646.238 1032.68L645.761 1031.8ZM623.561 1031.6L623.055 1032.46L623.066 1032.47L623.077 1032.48L623.561 1031.6ZM615.961 1024.1L615.105 1024.62L615.109 1024.62L615.113 1024.63L615.961 1024.1ZM611.761 1012.7L610.779 1012.89L610.78 1012.89L611.761 1012.7ZM650.561 987.9L651.553 987.776L651.314 985.859L649.887 987.161L650.561 987.9ZM620.861 1015L620.187 1014.26L619.723 1014.68L619.903 1015.29L620.861 1015ZM625.961 1024.1L625.254 1024.81L625.254 1024.81L625.961 1024.1ZM647.361 1020.2L646.474 1019.74L646.469 1019.75L647.361 1020.2ZM618.861 1002.8L617.862 1002.84L617.863 1002.87L617.865 1002.89L618.861 1002.8ZM619.261 1007.3L618.265 1007.39L618.447 1009.39L619.932 1008.04L619.261 1007.3ZM649.061 980.3L649.732 981.041L650.207 980.611L650.015 980L649.061 980.3ZM643.961 971.7L643.265 972.418L643.27 972.423L643.276 972.428L643.961 971.7ZM622.361 975.9L621.466 975.453L621.464 975.458L622.361 975.9ZM611.461 998C611.461 992.39 611.956 987.399 612.937 983.018L610.985 982.582C609.966 987.134 609.461 992.276 609.461 998H611.461ZM612.937 983.015C613.918 978.57 615.379 974.889 617.299 971.946L615.623 970.854C613.542 974.044 612.004 977.964 610.984 982.585L612.937 983.015ZM617.304 971.938C619.217 968.941 621.623 966.7 624.524 965.187L623.598 963.413C620.365 965.1 617.705 967.593 615.618 970.862L617.304 971.938ZM624.538 965.179C627.432 963.606 630.894 962.8 634.961 962.8V960.8C630.628 960.8 626.824 961.66 623.583 963.421L624.538 965.179ZM634.961 962.8C639.312 962.8 642.91 963.58 645.798 965.087L646.724 963.313C643.479 961.62 639.543 960.8 634.961 960.8V962.8ZM645.806 965.091C648.774 966.606 651.175 968.814 653.015 971.733L654.707 970.667C652.681 967.453 650.014 964.994 646.716 963.309L645.806 965.091ZM653.015 971.733C654.866 974.67 656.229 978.345 657.079 982.788L659.043 982.412C658.159 977.788 656.722 973.864 654.707 970.667L653.015 971.733ZM657.079 982.79C657.931 987.18 658.361 992.247 658.361 998H660.361C660.361 992.153 659.924 986.953 659.043 982.41L657.079 982.79ZM658.361 998C658.361 1003.61 657.866 1008.64 656.884 1013.08L658.837 1013.52C659.856 1008.9 660.361 1003.72 660.361 998H658.361ZM656.885 1013.08C655.905 1017.46 654.443 1021.15 652.518 1024.16L654.204 1025.24C656.279 1021.99 657.817 1018.07 658.837 1013.52L656.885 1013.08ZM652.523 1024.15C650.609 1027.09 648.197 1029.34 645.283 1030.92L646.238 1032.68C649.458 1030.93 652.113 1028.44 654.199 1025.25L652.523 1024.15ZM645.298 1030.91C642.402 1032.42 638.934 1033.2 634.861 1033.2V1035.2C639.188 1035.2 642.987 1034.38 646.224 1032.69L645.298 1030.91ZM634.861 1033.2C630.592 1033.2 627 1032.36 624.045 1030.72L623.077 1032.48C626.389 1034.31 630.33 1035.2 634.861 1035.2V1033.2ZM624.067 1030.74C621.148 1029.02 618.729 1026.64 616.809 1023.57L615.113 1024.63C617.193 1027.96 619.84 1030.58 623.055 1032.46L624.067 1030.74ZM616.817 1023.58C614.955 1020.5 613.591 1016.81 612.742 1012.51L610.78 1012.89C611.665 1017.39 613.101 1021.3 615.105 1024.62L616.817 1023.58ZM612.743 1012.51C611.89 1008.12 611.461 1003.28 611.461 998H609.461C609.461 1003.39 609.899 1008.35 610.779 1012.89L612.743 1012.51ZM652.161 998C652.161 994.429 651.959 991.021 651.553 987.776L649.569 988.024C649.963 991.179 650.161 994.504 650.161 998H652.161ZM649.887 987.161L620.187 1014.26L621.535 1015.74L651.235 988.639L649.887 987.161ZM619.903 1015.29C621.072 1019.21 622.845 1022.4 625.254 1024.81L626.668 1023.39C624.543 1021.27 622.916 1018.39 621.819 1014.71L619.903 1015.29ZM625.254 1024.81C627.735 1027.29 630.97 1028.5 634.861 1028.5V1026.5C631.418 1026.5 628.72 1025.44 626.668 1023.39L625.254 1024.81ZM634.861 1028.5C637.933 1028.5 640.624 1027.86 642.89 1026.54C645.161 1025.21 646.944 1023.23 648.253 1020.65L646.469 1019.75C645.311 1022.03 643.778 1023.7 641.882 1024.81C639.981 1025.92 637.655 1026.5 634.861 1026.5V1028.5ZM648.248 1020.66C650.894 1015.58 652.161 1007.98 652.161 998H650.161C650.161 1007.88 648.895 1015.09 646.474 1019.74L648.248 1020.66ZM617.761 998C617.761 999.68 617.795 1001.29 617.862 1002.84L619.86 1002.76C619.794 1001.24 619.761 999.653 619.761 998H617.761ZM617.865 1002.89C617.998 1004.42 618.132 1005.92 618.265 1007.39L620.257 1007.21C620.124 1005.74 619.99 1004.25 619.857 1002.71L617.865 1002.89ZM619.932 1008.04L649.732 981.041L648.39 979.559L618.59 1006.56L619.932 1008.04ZM650.015 980C648.841 976.271 647.062 973.245 644.646 970.972L643.276 972.428C645.394 974.422 647.014 977.129 648.107 980.6L650.015 980ZM644.657 970.982C642.228 968.627 638.955 967.5 634.961 967.5V969.5C638.567 969.5 641.294 970.507 643.265 972.418L644.657 970.982ZM634.961 967.5C631.855 967.5 629.138 968.146 626.855 969.488C624.566 970.832 622.775 972.837 621.467 975.453L623.255 976.347C624.414 974.03 625.955 972.335 627.867 971.212C629.784 970.087 632.134 969.5 634.961 969.5V967.5ZM621.464 975.458C618.961 980.533 617.761 988.086 617.761 998H619.761C619.761 988.181 620.961 981 623.258 976.342L621.464 975.458ZM671.922 982.8L672.898 983.018L672.898 983.015L671.922 982.8ZM676.422 971.4L677.26 971.946L677.265 971.938L676.422 971.4ZM684.022 964.3L684.484 965.187L684.492 965.183L684.499 965.179L684.022 964.3ZM706.222 964.2L705.759 965.087L705.767 965.091L706.222 964.2ZM713.822 971.2L714.668 970.667L714.668 970.667L713.822 971.2ZM718.022 982.6L717.04 982.788L717.04 982.79L718.022 982.6ZM717.822 1013.3L718.798 1013.52L718.798 1013.52L717.822 1013.3ZM713.322 1024.7L714.16 1025.25L714.165 1025.24L713.322 1024.7ZM705.722 1031.8L706.184 1032.69L706.192 1032.68L706.199 1032.68L705.722 1031.8ZM683.522 1031.6L683.016 1032.46L683.027 1032.47L683.038 1032.48L683.522 1031.6ZM675.922 1024.1L675.066 1024.62L675.07 1024.62L675.074 1024.63L675.922 1024.1ZM671.722 1012.7L670.74 1012.89L670.741 1012.89L671.722 1012.7ZM710.522 987.9L711.514 987.776L711.275 985.859L709.848 987.161L710.522 987.9ZM680.822 1015L680.148 1014.26L679.684 1014.68L679.864 1015.29L680.822 1015ZM685.922 1024.1L685.215 1024.81L685.215 1024.81L685.922 1024.1ZM707.322 1020.2L706.435 1019.74L706.43 1019.75L707.322 1020.2ZM678.822 1002.8L677.823 1002.84L677.824 1002.87L677.826 1002.89L678.822 1002.8ZM679.222 1007.3L678.226 1007.39L678.408 1009.39L679.893 1008.04L679.222 1007.3ZM709.022 980.3L709.693 981.041L710.168 980.611L709.976 980L709.022 980.3ZM703.922 971.7L703.226 972.418L703.231 972.423L703.237 972.428L703.922 971.7ZM682.322 975.9L681.427 975.453L681.425 975.458L682.322 975.9ZM671.422 998C671.422 992.39 671.917 987.399 672.898 983.018L670.946 982.582C669.927 987.134 669.422 992.276 669.422 998H671.422ZM672.898 983.015C673.879 978.57 675.34 974.889 677.259 971.946L675.584 970.854C673.503 974.044 671.965 977.964 670.945 982.585L672.898 983.015ZM677.265 971.938C679.178 968.941 681.584 966.7 684.484 965.187L683.559 963.413C680.326 965.1 677.666 967.593 675.579 970.862L677.265 971.938ZM684.499 965.179C687.392 963.606 690.855 962.8 694.922 962.8V960.8C690.589 960.8 686.785 961.66 683.544 963.421L684.499 965.179ZM694.922 962.8C699.273 962.8 702.871 963.58 705.759 965.087L706.684 963.313C703.439 961.62 699.504 960.8 694.922 960.8V962.8ZM705.767 965.091C708.735 966.606 711.135 968.814 712.976 971.733L714.668 970.667C712.642 967.453 709.975 964.994 706.677 963.309L705.767 965.091ZM712.976 971.733C714.827 974.67 716.19 978.345 717.04 982.788L719.004 982.412C718.12 977.788 716.683 973.864 714.668 970.667L712.976 971.733ZM717.04 982.79C717.892 987.18 718.322 992.247 718.322 998H720.322C720.322 992.153 719.885 986.953 719.004 982.41L717.04 982.79ZM718.322 998C718.322 1003.61 717.827 1008.64 716.845 1013.08L718.798 1013.52C719.817 1008.9 720.322 1003.72 720.322 998H718.322ZM716.846 1013.08C715.866 1017.46 714.404 1021.15 712.479 1024.16L714.165 1025.24C716.24 1021.99 717.778 1018.07 718.798 1013.52L716.846 1013.08ZM712.484 1024.15C710.57 1027.09 708.158 1029.34 705.244 1030.92L706.199 1032.68C709.419 1030.93 712.073 1028.44 714.159 1025.25L712.484 1024.15ZM705.259 1030.91C702.363 1032.42 698.895 1033.2 694.822 1033.2V1035.2C699.149 1035.2 702.948 1034.38 706.184 1032.69L705.259 1030.91ZM694.822 1033.2C690.553 1033.2 686.961 1032.36 684.006 1030.72L683.038 1032.48C686.35 1034.31 690.291 1035.2 694.822 1035.2V1033.2ZM684.028 1030.74C681.109 1029.02 678.69 1026.64 676.77 1023.57L675.074 1024.63C677.154 1027.96 679.801 1030.58 683.016 1032.46L684.028 1030.74ZM676.778 1023.58C674.915 1020.5 673.552 1016.81 672.703 1012.51L670.741 1012.89C671.626 1017.39 673.062 1021.3 675.066 1024.62L676.778 1023.58ZM672.704 1012.51C671.851 1008.12 671.422 1003.28 671.422 998H669.422C669.422 1003.39 669.859 1008.35 670.74 1012.89L672.704 1012.51ZM712.122 998C712.122 994.429 711.92 991.021 711.514 987.776L709.53 988.024C709.924 991.179 710.122 994.504 710.122 998H712.122ZM709.848 987.161L680.148 1014.26L681.496 1015.74L711.196 988.639L709.848 987.161ZM679.864 1015.29C681.033 1019.21 682.806 1022.4 685.215 1024.81L686.629 1023.39C684.504 1021.27 682.877 1018.39 681.78 1014.71L679.864 1015.29ZM685.215 1024.81C687.696 1027.29 690.931 1028.5 694.822 1028.5V1026.5C691.379 1026.5 688.681 1025.44 686.629 1023.39L685.215 1024.81ZM694.822 1028.5C697.894 1028.5 700.585 1027.86 702.851 1026.54C705.122 1025.21 706.905 1023.23 708.214 1020.65L706.43 1019.75C705.272 1022.03 703.739 1023.7 701.843 1024.81C699.942 1025.92 697.616 1026.5 694.822 1026.5V1028.5ZM708.209 1020.66C710.855 1015.58 712.122 1007.98 712.122 998H710.122C710.122 1007.88 708.856 1015.09 706.435 1019.74L708.209 1020.66ZM677.722 998C677.722 999.68 677.755 1001.29 677.823 1002.84L679.821 1002.76C679.755 1001.24 679.722 999.653 679.722 998H677.722ZM677.826 1002.89C677.959 1004.42 678.093 1005.92 678.226 1007.39L680.218 1007.21C680.085 1005.74 679.951 1004.25 679.818 1002.71L677.826 1002.89ZM679.893 1008.04L709.693 981.041L708.35 979.559L678.55 1006.56L679.893 1008.04ZM709.976 980C708.802 976.271 707.022 973.245 704.607 970.972L703.237 972.428C705.355 974.422 706.975 977.129 708.068 980.6L709.976 980ZM704.618 970.982C702.189 968.627 698.916 967.5 694.922 967.5V969.5C698.528 969.5 701.255 970.507 703.226 972.418L704.618 970.982ZM694.922 967.5C691.816 967.5 689.099 968.146 686.815 969.488C684.527 970.832 682.735 972.837 681.427 975.453L683.216 976.347C684.375 974.03 685.916 972.335 687.828 971.212C689.744 970.087 692.095 969.5 694.922 969.5V967.5ZM681.425 975.458C678.922 980.533 677.722 988.086 677.722 998H679.722C679.722 988.181 680.922 981 683.219 976.342L681.425 975.458ZM759.783 963V962H758.783V963H759.783ZM775.983 963H776.983V962H775.983V963ZM776.083 1018.2L775.085 1018.27L775.086 1018.28L776.083 1018.2ZM776.283 1021L775.285 1021.07L775.287 1021.1L775.292 1021.13L776.283 1021ZM776.683 1024L775.692 1024.13L775.693 1024.14L776.683 1024ZM777.083 1026.5L776.099 1026.68L776.248 1027.5H777.083V1026.5ZM783.783 1026.5H784.783V1025.5H783.783V1026.5ZM783.783 1033V1034H784.783V1033H783.783ZM770.483 1033L769.491 1033.13L769.604 1034H770.483V1033ZM769.483 1025.3L770.474 1025.17L770.361 1024.3H769.483V1025.3ZM769.083 1025.3V1024.3H768.506L768.217 1024.8L769.083 1025.3ZM762.483 1031.7L762.985 1032.56L762.992 1032.56L762.483 1031.7ZM735.783 1027.9L735.013 1028.54L735.018 1028.54L735.024 1028.55L735.783 1027.9ZM732.283 997L733.219 997.351L733.221 997.345L732.283 997ZM737.383 988.9L738.079 989.618L738.079 989.618L737.383 988.9ZM745.483 983.9L745.143 982.96L745.483 983.9ZM759.683 982.3L759.62 983.298L759.624 983.298L759.683 982.3ZM762.783 982.6L762.641 983.59L762.641 983.59L762.783 982.6ZM765.383 983.2L765.067 984.149L765.112 984.164L765.158 984.174L765.383 983.2ZM768.183 983.9L767.925 984.866L769.183 985.202V983.9H768.183ZM768.183 969.7H769.183V968.7H768.183V969.7ZM759.783 969.7H758.783V970.7H759.783V969.7ZM763.383 1024.4L764.046 1025.15L764.052 1025.14L764.058 1025.14L763.383 1024.4ZM768.183 1014.9L769.162 1015.1L769.183 1015V1014.9H768.183ZM768.183 991.7H769.183V991.171L768.746 990.874L768.183 991.7ZM763.183 989.5L762.932 990.468L762.94 990.47L763.183 989.5ZM743.383 993.5L744.09 994.207L744.097 994.199L743.383 993.5ZM739.483 1015.8L738.501 1015.99L738.504 1016.01L738.508 1016.02L739.483 1015.8ZM741.983 1021.9L741.146 1022.45L741.153 1022.46L741.161 1022.47L741.983 1021.9ZM746.683 1026L746.223 1026.89L746.223 1026.89L746.683 1026ZM759.783 964H775.983V962H759.783V964ZM774.983 963V1015.9H776.983V963H774.983ZM774.983 1015.9C774.983 1016.53 775.018 1017.33 775.085 1018.27L777.08 1018.13C777.014 1017.21 776.983 1016.47 776.983 1015.9H774.983ZM775.086 1018.28C775.152 1019.14 775.219 1020.07 775.285 1021.07L777.281 1020.93C777.214 1019.93 777.147 1018.99 777.08 1018.12L775.086 1018.28ZM775.292 1021.13C775.425 1022.13 775.558 1023.13 775.692 1024.13L777.674 1023.87C777.541 1022.87 777.407 1021.87 777.274 1020.87L775.292 1021.13ZM775.693 1024.14C775.828 1025.08 775.963 1025.93 776.099 1026.68L778.067 1026.32C777.936 1025.6 777.805 1024.78 777.673 1023.86L775.693 1024.14ZM777.083 1027.5H783.783V1025.5H777.083V1027.5ZM782.783 1026.5V1033H784.783V1026.5H782.783ZM783.783 1032H770.483V1034H783.783V1032ZM771.474 1032.87L770.474 1025.17L768.491 1025.43L769.491 1033.13L771.474 1032.87ZM769.483 1024.3H769.083V1026.3H769.483V1024.3ZM768.217 1024.8C766.85 1027.16 764.784 1029.18 761.974 1030.84L762.992 1032.56C766.048 1030.75 768.382 1028.51 769.948 1025.8L768.217 1024.8ZM761.98 1030.84C759.287 1032.4 756.132 1033.2 752.483 1033.2V1035.2C756.433 1035.2 759.945 1034.33 762.985 1032.56L761.98 1030.84ZM752.483 1033.2C745.13 1033.2 739.89 1031.16 736.542 1027.25L735.024 1028.55C738.876 1033.04 744.769 1035.2 752.483 1035.2V1033.2ZM736.553 1027.26C733.235 1023.26 731.483 1016.93 731.483 1008.1H729.483C729.483 1017.13 731.264 1024.01 735.013 1028.54L736.553 1027.26ZM731.483 1008.1C731.483 1003.99 732.07 1000.42 733.219 997.351L731.346 996.649C730.096 999.984 729.483 1003.81 729.483 1008.1H731.483ZM733.221 997.345C734.377 994.2 736.001 991.633 738.079 989.618L736.687 988.182C734.365 990.433 732.589 993.267 731.344 996.655L733.221 997.345ZM738.079 989.618C740.239 987.522 742.815 985.928 745.823 984.84L745.143 982.96C741.884 984.138 739.06 985.878 736.686 988.182L738.079 989.618ZM745.823 984.84C748.831 983.752 752.214 983.2 755.983 983.2V981.2C752.018 981.2 748.401 981.781 745.143 982.96L745.823 984.84ZM755.983 983.2C757.368 983.2 758.58 983.233 759.62 983.298L759.745 981.302C758.653 981.234 757.398 981.2 755.983 981.2V983.2ZM759.624 983.298C760.735 983.364 761.74 983.461 762.641 983.59L762.924 981.61C761.959 981.472 760.897 981.37 759.742 981.302L759.624 983.298ZM762.641 983.59C763.522 983.716 764.33 983.903 765.067 984.149L765.699 982.251C764.836 981.964 763.91 981.751 762.924 981.61L762.641 983.59ZM765.158 984.174C766.012 984.371 766.934 984.602 767.925 984.866L768.44 982.934C767.431 982.665 766.487 982.429 765.608 982.226L765.158 984.174ZM769.183 983.9V969.7H767.183V983.9H769.183ZM768.183 968.7H759.783V970.7H768.183V968.7ZM760.783 969.7V963H758.783V969.7H760.783ZM753.783 1028.5C758.018 1028.5 761.48 1027.42 764.046 1025.15L762.72 1023.65C760.619 1025.51 757.681 1026.5 753.783 1026.5V1028.5ZM764.058 1025.14C766.593 1022.82 768.268 1019.44 769.162 1015.1L767.203 1014.7C766.364 1018.76 764.839 1021.71 762.708 1023.66L764.058 1025.14ZM769.183 1014.9V991.7H767.183V1014.9H769.183ZM768.746 990.874C767.174 989.802 765.397 989.023 763.425 988.53L762.94 990.47C764.702 990.911 766.258 991.598 767.619 992.526L768.746 990.874ZM763.434 988.532C761.517 988.035 759.023 987.8 755.983 987.8V989.8C758.943 989.8 761.248 990.031 762.932 990.468L763.434 988.532ZM755.983 987.8C750.443 987.8 745.962 989.435 742.668 992.801L744.097 994.199C746.937 991.299 750.856 989.8 755.983 989.8V987.8ZM742.676 992.793C739.342 996.127 737.783 1001.31 737.783 1008.1H739.783C739.783 1001.56 741.291 997.007 744.09 994.207L742.676 992.793ZM737.783 1008.1C737.783 1010.89 738.021 1013.52 738.501 1015.99L740.464 1015.61C740.011 1013.28 739.783 1010.78 739.783 1008.1H737.783ZM738.508 1016.02C739.064 1018.45 739.938 1020.6 741.146 1022.45L742.82 1021.35C741.761 1019.73 740.969 1017.81 740.458 1015.58L738.508 1016.02ZM741.161 1022.47C742.457 1024.34 744.15 1025.82 746.223 1026.89L747.142 1025.11C745.349 1024.18 743.909 1022.93 742.805 1021.33L741.161 1022.47ZM746.223 1026.89C748.334 1027.98 750.867 1028.5 753.783 1028.5V1026.5C751.098 1026.5 748.899 1026.02 747.142 1025.11L746.223 1026.89Z" />
</svg>